{
	"asset":{
		"generator":"Khronos glTF Blender I/O v4.0.44",
		"version":"2.0"
	},
	"scene":0,
	"scenes":[
		{
			"name":"Scene",
			"nodes":[
				21
			]
		}
	],
	"nodes":[
		{
			"mesh":0,
			"name":"polySurface11_mat_nonwalls_0.001"
		},
		{
			"children":[
				0
			],
			"name":"polySurface11.001"
		},
		{
			"mesh":1,
			"name":"polySurface12_mat_nonwalls_0.001"
		},
		{
			"children":[
				2
			],
			"name":"polySurface12.001"
		},
		{
			"children":[
				1,
				3
			],
			"name":"polySurface9"
		},
		{
			"children":[
				4
			],
			"name":"Door_Frame"
		},
		{
			"mesh":2,
			"name":"Door_Left_mat_nonwalls_0.001"
		},
		{
			"children":[
				6
			],
			"name":"Door_Left.001",
			"translation":[
				-6.207242488861084,
				4.031169414520264,
				1.3679919242858887
			]
		},
		{
			"mesh":3,
			"name":"Door_Right_mat_nonwalls_0.001"
		},
		{
			"children":[
				8
			],
			"name":"Door_Right.002",
			"translation":[
				1.8139162063598633,
				4.031169414520264,
				-1.1555876731872559
			]
		},
		{
			"mesh":4,
			"name":"Door_Right_Light_Blue_Light_0.001"
		},
		{
			"mesh":5,
			"name":"Door_Right_Light_mat_nonwalls_0.001"
		},
		{
			"children":[
				10,
				11
			],
			"name":"Door_Right_Light.001",
			"translation":[
				1.8139162063598633,
				4.031169414520264,
				-1.1555876731872559
			]
		},
		{
			"children":[
				9,
				12
			],
			"name":"Door_Right.001",
			"translation":[
				-8.104616165161133,
				0,
				2.5235793590545654
			]
		},
		{
			"children":[
				5,
				7,
				13
			],
			"name":"Door2",
			"translation":[
				-5.827836513519287,
				0,
				1.632007360458374
			]
		},
		{
			"mesh":6,
			"name":"Final_blinn1_0"
		},
		{
			"mesh":7,
			"name":"Final_Blue_Light_0"
		},
		{
			"mesh":8,
			"name":"Final_mat_nonwalls_0"
		},
		{
			"mesh":9,
			"name":"Final_mat_refinewalls_0"
		},
		{
			"mesh":10,
			"name":"Final_mat_walls_0"
		},
		{
			"children":[
				15,
				16,
				17,
				18,
				19
			],
			"name":"Final"
		},
		{
			"children":[
				14,
				20
			],
			"name":"RootNode"
		}
	],
	"animations":[
		{
			"channels":[
				{
					"sampler":0,
					"target":{
						"node":7,
						"path":"translation"
					}
				},
				{
					"sampler":1,
					"target":{
						"node":13,
						"path":"translation"
					}
				}
			],
			"name":"Take 001",
			"samplers":[
				{
					"input":55,
					"interpolation":"LINEAR",
					"output":56
				},
				{
					"input":57,
					"interpolation":"LINEAR",
					"output":58
				}
			]
		}
	],
	"materials":[
		{
			"doubleSided":true,
			"name":"mat_nonwalls",
			"normalTexture":{
				"index":0
			},
			"pbrMetallicRoughness":{
				"baseColorTexture":{
					"index":1
				},
				"metallicRoughnessTexture":{
					"index":2
				}
			}
		},
		{
			"doubleSided":true,
			"emissiveFactor":[
				0.5126945972442627,
				1,
				1
			],
			"name":"Blue_Light",
			"pbrMetallicRoughness":{
				"metallicFactor":0,
				"roughnessFactor":0.6000000238418579
			}
		},
		{
			"alphaMode":"BLEND",
			"doubleSided":true,
			"name":"blinn1",
			"pbrMetallicRoughness":{
				"baseColorFactor":[
					0.31369999051094055,
					1,
					1,
					0.26391005516052246
				],
				"metallicFactor":0,
				"roughnessFactor":0.9207483530044556
			}
		},
		{
			"doubleSided":true,
			"name":"mat_refinewalls",
			"normalTexture":{
				"index":3
			},
			"pbrMetallicRoughness":{
				"baseColorTexture":{
					"index":4
				},
				"metallicRoughnessTexture":{
					"index":5
				}
			}
		},
		{
			"doubleSided":true,
			"name":"mat_walls",
			"normalTexture":{
				"index":6
			},
			"pbrMetallicRoughness":{
				"baseColorTexture":{
					"index":7
				},
				"metallicRoughnessTexture":{
					"index":8
				}
			}
		}
	],
	"meshes":[
		{
			"name":"polySurface11_mat_nonwalls_0.001",
			"primitives":[
				{
					"attributes":{
						"POSITION":0,
						"NORMAL":1,
						"TEXCOORD_0":2,
						"TANGENT":3
					},
					"indices":4,
					"material":0
				}
			]
		},
		{
			"name":"polySurface12_mat_nonwalls_0.001",
			"primitives":[
				{
					"attributes":{
						"POSITION":5,
						"NORMAL":6,
						"TEXCOORD_0":7,
						"TANGENT":8
					},
					"indices":9,
					"material":0
				}
			]
		},
		{
			"name":"Door_Left_mat_nonwalls_0.001",
			"primitives":[
				{
					"attributes":{
						"POSITION":10,
						"NORMAL":11,
						"TEXCOORD_0":12,
						"TANGENT":13
					},
					"indices":14,
					"material":0
				}
			]
		},
		{
			"name":"Door_Right_mat_nonwalls_0.001",
			"primitives":[
				{
					"attributes":{
						"POSITION":15,
						"NORMAL":16,
						"TEXCOORD_0":17,
						"TANGENT":18
					},
					"indices":19,
					"material":0
				}
			]
		},
		{
			"name":"Door_Right_Light_Blue_Light_0.001",
			"primitives":[
				{
					"attributes":{
						"POSITION":20,
						"NORMAL":21,
						"TEXCOORD_0":22,
						"TANGENT":23
					},
					"indices":24,
					"material":1
				}
			]
		},
		{
			"name":"Door_Right_Light_mat_nonwalls_0.001",
			"primitives":[
				{
					"attributes":{
						"POSITION":25,
						"NORMAL":26,
						"TEXCOORD_0":27,
						"TANGENT":28
					},
					"indices":29,
					"material":0
				}
			]
		},
		{
			"name":"Final_blinn1_0",
			"primitives":[
				{
					"attributes":{
						"POSITION":30,
						"NORMAL":31,
						"TEXCOORD_0":32,
						"TANGENT":33
					},
					"indices":34,
					"material":2
				}
			]
		},
		{
			"name":"Final_Blue_Light_0",
			"primitives":[
				{
					"attributes":{
						"POSITION":35,
						"NORMAL":36,
						"TEXCOORD_0":37,
						"TANGENT":38
					},
					"indices":39,
					"material":1
				}
			]
		},
		{
			"name":"Final_mat_nonwalls_0",
			"primitives":[
				{
					"attributes":{
						"POSITION":40,
						"NORMAL":41,
						"TEXCOORD_0":42,
						"TANGENT":43
					},
					"indices":44,
					"material":0
				}
			]
		},
		{
			"name":"Final_mat_refinewalls_0",
			"primitives":[
				{
					"attributes":{
						"POSITION":45,
						"NORMAL":46,
						"TEXCOORD_0":47,
						"TANGENT":48
					},
					"indices":49,
					"material":3
				}
			]
		},
		{
			"name":"Final_mat_walls_0",
			"primitives":[
				{
					"attributes":{
						"POSITION":50,
						"NORMAL":51,
						"TEXCOORD_0":52,
						"TANGENT":53
					},
					"indices":54,
					"material":4
				}
			]
		}
	],
	"textures":[
		{
			"sampler":0,
			"source":0
		},
		{
			"sampler":0,
			"source":1
		},
		{
			"sampler":0,
			"source":2
		},
		{
			"sampler":0,
			"source":3
		},
		{
			"sampler":0,
			"source":4
		},
		{
			"sampler":0,
			"source":5
		},
		{
			"sampler":0,
			"source":6
		},
		{
			"sampler":0,
			"source":7
		},
		{
			"sampler":0,
			"source":8
		}
	],
	"images":[
		{
			"mimeType":"image/png",
			"name":"mat_nonwalls_normal",
			"uri":"mat_nonwalls_normal.png"
		},
		{
			"mimeType":"image/png",
			"name":"mat_nonwalls_baseColor",
			"uri":"mat_nonwalls_baseColor.png"
		},
		{
			"mimeType":"image/png",
			"name":"mat_nonwalls_metallicRoughness",
			"uri":"mat_nonwalls_metallicRoughness.png"
		},
		{
			"mimeType":"image/png",
			"name":"mat_refinewalls_normal",
			"uri":"mat_refinewalls_normal.png"
		},
		{
			"mimeType":"image/png",
			"name":"mat_refinewalls_baseColor",
			"uri":"mat_refinewalls_baseColor.png"
		},
		{
			"mimeType":"image/png",
			"name":"mat_refinewalls_metallicRoughness",
			"uri":"mat_refinewalls_metallicRoughness.png"
		},
		{
			"mimeType":"image/png",
			"name":"mat_walls_normal",
			"uri":"mat_walls_normal.png"
		},
		{
			"mimeType":"image/png",
			"name":"mat_walls_baseColor",
			"uri":"mat_walls_baseColor.png"
		},
		{
			"mimeType":"image/png",
			"name":"mat_walls_metallicRoughness",
			"uri":"mat_walls_metallicRoughness.png"
		}
	],
	"accessors":[
		{
			"bufferView":0,
			"componentType":5126,
			"count":126,
			"max":[
				-5.915924549102783,
				4.898325443267822,
				4.113269805908203
			],
			"min":[
				-6.425709247589111,
				-1.1920928955078125e-07,
				-1.3772865533828735
			],
			"type":"VEC3"
		},
		{
			"bufferView":1,
			"componentType":5126,
			"count":126,
			"type":"VEC3"
		},
		{
			"bufferView":2,
			"componentType":5126,
			"count":126,
			"type":"VEC2"
		},
		{
			"bufferView":3,
			"componentType":5126,
			"count":126,
			"type":"VEC4"
		},
		{
			"bufferView":4,
			"componentType":5123,
			"count":216,
			"type":"SCALAR"
		},
		{
			"bufferView":5,
			"componentType":5126,
			"count":4,
			"max":[
				-5.957520008087158,
				1.0147310547381494e-07,
				3.7014787197113037
			],
			"min":[
				-6.425709247589111,
				-5.960464477539063e-08,
				-0.9654949903488159
			],
			"type":"VEC3"
		},
		{
			"bufferView":6,
			"componentType":5126,
			"count":4,
			"type":"VEC3"
		},
		{
			"bufferView":7,
			"componentType":5126,
			"count":4,
			"type":"VEC2"
		},
		{
			"bufferView":8,
			"componentType":5126,
			"count":4,
			"type":"VEC4"
		},
		{
			"bufferView":9,
			"componentType":5123,
			"count":6,
			"type":"SCALAR"
		},
		{
			"bufferView":10,
			"componentType":5126,
			"count":38,
			"max":[
				0.06999929994344711,
				0.5539713501930237,
				2.412104845046997
			],
			"min":[
				7.840012727911017e-08,
				-4.031169414520264,
				-0.271308034658432
			],
			"type":"VEC3"
		},
		{
			"bufferView":11,
			"componentType":5126,
			"count":38,
			"type":"VEC3"
		},
		{
			"bufferView":12,
			"componentType":5126,
			"count":38,
			"type":"VEC2"
		},
		{
			"bufferView":13,
			"componentType":5126,
			"count":38,
			"type":"VEC4"
		},
		{
			"bufferView":14,
			"componentType":5123,
			"count":72,
			"type":"SCALAR"
		},
		{
			"bufferView":15,
			"componentType":5126,
			"count":28,
			"max":[
				0.23691709339618683,
				0.5539713501930237,
				0.0502190962433815
			],
			"min":[
				7.840012727911017e-08,
				-4.031169414520264,
				-2.4142448902130127
			],
			"type":"VEC3"
		},
		{
			"bufferView":16,
			"componentType":5126,
			"count":28,
			"type":"VEC3"
		},
		{
			"bufferView":17,
			"componentType":5126,
			"count":28,
			"type":"VEC2"
		},
		{
			"bufferView":18,
			"componentType":5126,
			"count":28,
			"type":"VEC4"
		},
		{
			"bufferView":19,
			"componentType":5123,
			"count":72,
			"type":"SCALAR"
		},
		{
			"bufferView":20,
			"componentType":5126,
			"count":38,
			"max":[
				0.15491779148578644,
				0.5539713501930237,
				0.35988619923591614
			],
			"min":[
				0.08199890702962875,
				-4.031169414520264,
				-0.4329613149166107
			],
			"type":"VEC3"
		},
		{
			"bufferView":21,
			"componentType":5126,
			"count":38,
			"type":"VEC3"
		},
		{
			"bufferView":22,
			"componentType":5126,
			"count":38,
			"type":"VEC2"
		},
		{
			"bufferView":23,
			"componentType":5126,
			"count":38,
			"type":"VEC4"
		},
		{
			"bufferView":24,
			"componentType":5123,
			"count":72,
			"type":"SCALAR"
		},
		{
			"bufferView":25,
			"componentType":5126,
			"count":258,
			"max":[
				0.31791791319847107,
				0.5539713501930237,
				0.4631088078022003
			],
			"min":[
				-0.08100119978189468,
				-4.031169414520264,
				-0.5386891961097717
			],
			"type":"VEC3"
		},
		{
			"bufferView":26,
			"componentType":5126,
			"count":258,
			"type":"VEC3"
		},
		{
			"bufferView":27,
			"componentType":5126,
			"count":258,
			"type":"VEC2"
		},
		{
			"bufferView":28,
			"componentType":5126,
			"count":258,
			"type":"VEC4"
		},
		{
			"bufferView":29,
			"componentType":5123,
			"count":396,
			"type":"SCALAR"
		},
		{
			"bufferView":30,
			"componentType":5126,
			"count":49,
			"max":[
				20.941749572753906,
				4.2350754737854,
				7
			],
			"min":[
				-6.5125579833984375,
				1.764924168586731,
				-0.9998016357421875
			],
			"type":"VEC3"
		},
		{
			"bufferView":31,
			"componentType":5126,
			"count":49,
			"type":"VEC3"
		},
		{
			"bufferView":32,
			"componentType":5126,
			"count":49,
			"type":"VEC2"
		},
		{
			"bufferView":33,
			"componentType":5126,
			"count":49,
			"type":"VEC4"
		},
		{
			"bufferView":34,
			"componentType":5123,
			"count":78,
			"type":"SCALAR"
		},
		{
			"bufferView":35,
			"componentType":5126,
			"count":184,
			"max":[
				21.13454818725586,
				5.625383377075195,
				18.25118064880371
			],
			"min":[
				-19.83733367919922,
				-7.450577044210149e-08,
				-7.625389099121094
			],
			"type":"VEC3"
		},
		{
			"bufferView":36,
			"componentType":5126,
			"count":184,
			"type":"VEC3"
		},
		{
			"bufferView":37,
			"componentType":5126,
			"count":184,
			"type":"VEC2"
		},
		{
			"bufferView":38,
			"componentType":5126,
			"count":184,
			"type":"VEC4"
		},
		{
			"bufferView":39,
			"componentType":5123,
			"count":378,
			"type":"SCALAR"
		},
		{
			"bufferView":40,
			"componentType":5126,
			"count":1246,
			"max":[
				22.214548110961914,
				6.000002861022949,
				18.46818733215332
			],
			"min":[
				-19.212047576904297,
				-1.1920925402364446e-07,
				-7.000105857849121
			],
			"type":"VEC3"
		},
		{
			"bufferView":41,
			"componentType":5126,
			"count":1246,
			"type":"VEC3"
		},
		{
			"bufferView":42,
			"componentType":5126,
			"count":1246,
			"type":"VEC2"
		},
		{
			"bufferView":43,
			"componentType":5126,
			"count":1246,
			"type":"VEC4"
		},
		{
			"bufferView":44,
			"componentType":5123,
			"count":2532,
			"type":"SCALAR"
		},
		{
			"bufferView":45,
			"componentType":5126,
			"count":278,
			"max":[
				22.214548110961914,
				5.000103950500488,
				18.00003433227539
			],
			"min":[
				-20.211849212646484,
				-2.5625281452335003e-08,
				-8.000007629394531
			],
			"type":"VEC3"
		},
		{
			"bufferView":46,
			"componentType":5126,
			"count":278,
			"type":"VEC3"
		},
		{
			"bufferView":47,
			"componentType":5126,
			"count":278,
			"type":"VEC2"
		},
		{
			"bufferView":48,
			"componentType":5126,
			"count":278,
			"type":"VEC4"
		},
		{
			"bufferView":49,
			"componentType":5123,
			"count":486,
			"type":"SCALAR"
		},
		{
			"bufferView":50,
			"componentType":5126,
			"count":7039,
			"max":[
				22.214548110961914,
				6.000001907348633,
				18.00003433227539
			],
			"min":[
				-20.211849212646484,
				-1.7083522152461228e-08,
				-8.000007629394531
			],
			"type":"VEC3"
		},
		{
			"bufferView":51,
			"componentType":5126,
			"count":7039,
			"type":"VEC3"
		},
		{
			"bufferView":52,
			"componentType":5126,
			"count":7039,
			"type":"VEC2"
		},
		{
			"bufferView":53,
			"componentType":5126,
			"count":7039,
			"type":"VEC4"
		},
		{
			"bufferView":54,
			"componentType":5123,
			"count":11478,
			"type":"SCALAR"
		},
		{
			"bufferView":55,
			"componentType":5126,
			"count":160,
			"max":[
				6.708333333333333
			],
			"min":[
				0.08333333333333333
			],
			"type":"SCALAR"
		},
		{
			"bufferView":56,
			"componentType":5126,
			"count":160,
			"type":"VEC3"
		},
		{
			"bufferView":57,
			"componentType":5126,
			"count":160,
			"max":[
				6.666666666666667
			],
			"min":[
				0.041666666666666664
			],
			"type":"SCALAR"
		},
		{
			"bufferView":58,
			"componentType":5126,
			"count":160,
			"type":"VEC3"
		}
	],
	"bufferViews":[
		{
			"buffer":0,
			"byteLength":1512,
			"byteOffset":0,
			"target":34962
		},
		{
			"buffer":0,
			"byteLength":1512,
			"byteOffset":1512,
			"target":34962
		},
		{
			"buffer":0,
			"byteLength":1008,
			"byteOffset":3024,
			"target":34962
		},
		{
			"buffer":0,
			"byteLength":2016,
			"byteOffset":4032,
			"target":34962
		},
		{
			"buffer":0,
			"byteLength":432,
			"byteOffset":6048,
			"target":34963
		},
		{
			"buffer":0,
			"byteLength":48,
			"byteOffset":6480,
			"target":34962
		},
		{
			"buffer":0,
			"byteLength":48,
			"byteOffset":6528,
			"target":34962
		},
		{
			"buffer":0,
			"byteLength":32,
			"byteOffset":6576,
			"target":34962
		},
		{
			"buffer":0,
			"byteLength":64,
			"byteOffset":6608,
			"target":34962
		},
		{
			"buffer":0,
			"byteLength":12,
			"byteOffset":6672,
			"target":34963
		},
		{
			"buffer":0,
			"byteLength":456,
			"byteOffset":6684,
			"target":34962
		},
		{
			"buffer":0,
			"byteLength":456,
			"byteOffset":7140,
			"target":34962
		},
		{
			"buffer":0,
			"byteLength":304,
			"byteOffset":7596,
			"target":34962
		},
		{
			"buffer":0,
			"byteLength":608,
			"byteOffset":7900,
			"target":34962
		},
		{
			"buffer":0,
			"byteLength":144,
			"byteOffset":8508,
			"target":34963
		},
		{
			"buffer":0,
			"byteLength":336,
			"byteOffset":8652,
			"target":34962
		},
		{
			"buffer":0,
			"byteLength":336,
			"byteOffset":8988,
			"target":34962
		},
		{
			"buffer":0,
			"byteLength":224,
			"byteOffset":9324,
			"target":34962
		},
		{
			"buffer":0,
			"byteLength":448,
			"byteOffset":9548,
			"target":34962
		},
		{
			"buffer":0,
			"byteLength":144,
			"byteOffset":9996,
			"target":34963
		},
		{
			"buffer":0,
			"byteLength":456,
			"byteOffset":10140,
			"target":34962
		},
		{
			"buffer":0,
			"byteLength":456,
			"byteOffset":10596,
			"target":34962
		},
		{
			"buffer":0,
			"byteLength":304,
			"byteOffset":11052,
			"target":34962
		},
		{
			"buffer":0,
			"byteLength":608,
			"byteOffset":11356,
			"target":34962
		},
		{
			"buffer":0,
			"byteLength":144,
			"byteOffset":11964,
			"target":34963
		},
		{
			"buffer":0,
			"byteLength":3096,
			"byteOffset":12108,
			"target":34962
		},
		{
			"buffer":0,
			"byteLength":3096,
			"byteOffset":15204,
			"target":34962
		},
		{
			"buffer":0,
			"byteLength":2064,
			"byteOffset":18300,
			"target":34962
		},
		{
			"buffer":0,
			"byteLength":4128,
			"byteOffset":20364,
			"target":34962
		},
		{
			"buffer":0,
			"byteLength":792,
			"byteOffset":24492,
			"target":34963
		},
		{
			"buffer":0,
			"byteLength":588,
			"byteOffset":25284,
			"target":34962
		},
		{
			"buffer":0,
			"byteLength":588,
			"byteOffset":25872,
			"target":34962
		},
		{
			"buffer":0,
			"byteLength":392,
			"byteOffset":26460,
			"target":34962
		},
		{
			"buffer":0,
			"byteLength":784,
			"byteOffset":26852,
			"target":34962
		},
		{
			"buffer":0,
			"byteLength":156,
			"byteOffset":27636,
			"target":34963
		},
		{
			"buffer":0,
			"byteLength":2208,
			"byteOffset":27792,
			"target":34962
		},
		{
			"buffer":0,
			"byteLength":2208,
			"byteOffset":30000,
			"target":34962
		},
		{
			"buffer":0,
			"byteLength":1472,
			"byteOffset":32208,
			"target":34962
		},
		{
			"buffer":0,
			"byteLength":2944,
			"byteOffset":33680,
			"target":34962
		},
		{
			"buffer":0,
			"byteLength":756,
			"byteOffset":36624,
			"target":34963
		},
		{
			"buffer":0,
			"byteLength":14952,
			"byteOffset":37380,
			"target":34962
		},
		{
			"buffer":0,
			"byteLength":14952,
			"byteOffset":52332,
			"target":34962
		},
		{
			"buffer":0,
			"byteLength":9968,
			"byteOffset":67284,
			"target":34962
		},
		{
			"buffer":0,
			"byteLength":19936,
			"byteOffset":77252,
			"target":34962
		},
		{
			"buffer":0,
			"byteLength":5064,
			"byteOffset":97188,
			"target":34963
		},
		{
			"buffer":0,
			"byteLength":3336,
			"byteOffset":102252,
			"target":34962
		},
		{
			"buffer":0,
			"byteLength":3336,
			"byteOffset":105588,
			"target":34962
		},
		{
			"buffer":0,
			"byteLength":2224,
			"byteOffset":108924,
			"target":34962
		},
		{
			"buffer":0,
			"byteLength":4448,
			"byteOffset":111148,
			"target":34962
		},
		{
			"buffer":0,
			"byteLength":972,
			"byteOffset":115596,
			"target":34963
		},
		{
			"buffer":0,
			"byteLength":84468,
			"byteOffset":116568,
			"target":34962
		},
		{
			"buffer":0,
			"byteLength":84468,
			"byteOffset":201036,
			"target":34962
		},
		{
			"buffer":0,
			"byteLength":56312,
			"byteOffset":285504,
			"target":34962
		},
		{
			"buffer":0,
			"byteLength":112624,
			"byteOffset":341816,
			"target":34962
		},
		{
			"buffer":0,
			"byteLength":22956,
			"byteOffset":454440,
			"target":34963
		},
		{
			"buffer":0,
			"byteLength":640,
			"byteOffset":477396
		},
		{
			"buffer":0,
			"byteLength":1920,
			"byteOffset":478036
		},
		{
			"buffer":0,
			"byteLength":640,
			"byteOffset":479956
		},
		{
			"buffer":0,
			"byteLength":1920,
			"byteOffset":480596
		}
	],
	"samplers":[
		{
			"magFilter":9729,
			"minFilter":9987
		}
	],
	"buffers":[
		{
			"byteLength":482516,
			"uri":"pasillos.bin"
		}
	]
}
